<svg xmlns="http://www.w3.org/2000/svg" xmlns:xlink="http://www.w3.org/1999/xlink" width="1131.68" height="917" viewBox="0 0 1131.68 917">
  <defs>
    <filter id="Path_26" x="21.68" y="0" width="1110" height="917" filterUnits="userSpaceOnUse">
      <feOffset dx="10" dy="10" input="SourceAlpha"/>
      <feGaussianBlur stdDeviation="7.5" result="blur"/>
      <feFlood flood-opacity="0.161"/>
      <feComposite operator="in" in2="blur"/>
      <feComposite in="SourceGraphic"/>
    </filter>
    <filter id="Rectangle_16" x="0" y="487.512" width="120.581" height="93.495" filterUnits="userSpaceOnUse">
      <feOffset dy="3" input="SourceAlpha"/>
      <feGaussianBlur stdDeviation="3" result="blur-2"/>
      <feFlood flood-opacity="0.161"/>
      <feComposite operator="in" in2="blur-2"/>
      <feComposite in="SourceGraphic"/>
    </filter>
    <filter id="Rectangle_17" x="0" y="562.512" width="120.581" height="93.495" filterUnits="userSpaceOnUse">
      <feOffset dy="3" input="SourceAlpha"/>
      <feGaussianBlur stdDeviation="3" result="blur-3"/>
      <feFlood flood-opacity="0.161"/>
      <feComposite operator="in" in2="blur-3"/>
      <feComposite in="SourceGraphic"/>
    </filter>
    <filter id="Rectangle_18" x="0" y="637.512" width="120.581" height="93.495" filterUnits="userSpaceOnUse">
      <feOffset dy="3" input="SourceAlpha"/>
      <feGaussianBlur stdDeviation="3" result="blur-4"/>
      <feFlood flood-opacity="0.161"/>
      <feComposite operator="in" in2="blur-4"/>
      <feComposite in="SourceGraphic"/>
    </filter>
    <filter id="Rectangle_19" x="0" y="712.512" width="120.581" height="93.495" filterUnits="userSpaceOnUse">
      <feOffset dy="3" input="SourceAlpha"/>
      <feGaussianBlur stdDeviation="3" result="blur-5"/>
      <feFlood flood-opacity="0.161"/>
      <feComposite operator="in" in2="blur-5"/>
      <feComposite in="SourceGraphic"/>
    </filter>
    <filter id="globe-solid" x="67.685" y="730.721" width="32.238" height="33.279" filterUnits="userSpaceOnUse">
      <feOffset dy="3" input="SourceAlpha"/>
      <feGaussianBlur stdDeviation="0.5" result="blur-6"/>
      <feFlood flood-opacity="0.161"/>
      <feComposite operator="in" in2="blur-6"/>
      <feComposite in="SourceGraphic"/>
    </filter>
    <filter id="map-marked-alt-solid" x="66.68" y="502.721" width="34.242" height="33.279" filterUnits="userSpaceOnUse">
      <feOffset dy="3" input="SourceAlpha"/>
      <feGaussianBlur stdDeviation="0.5" result="blur-7"/>
      <feFlood flood-opacity="0.161"/>
      <feComposite operator="in" in2="blur-7"/>
      <feComposite in="SourceGraphic"/>
    </filter>
    <filter id="phone-solid" x="67.68" y="582.721" width="31.376" height="30.038" filterUnits="userSpaceOnUse">
      <feOffset dy="3" input="SourceAlpha"/>
      <feGaussianBlur stdDeviation="0.5" result="blur-8"/>
      <feFlood flood-opacity="0.161"/>
      <feComposite operator="in" in2="blur-8"/>
      <feComposite in="SourceGraphic"/>
    </filter>
    <filter id="envelope-solid" x="66.68" y="657.216" width="34.242" height="28.784" filterUnits="userSpaceOnUse">
      <feOffset dy="3" input="SourceAlpha"/>
      <feGaussianBlur stdDeviation="0.5" result="blur-9"/>
      <feFlood flood-opacity="0.161"/>
      <feComposite operator="in" in2="blur-9"/>
      <feComposite in="SourceGraphic"/>
    </filter>
  </defs>
  <g id="First_Box" data-name="First Box" transform="translate(-212.82 -380.5)">
    <g transform="matrix(1, 0, 0, 1, 212.82, 380.5)" filter="url(#Path_26)">
      <g id="Path_26-2" data-name="Path 26" transform="translate(34.18 12.5)" fill="#daccba">
        <path d="M 1060 869.5 L 5 869.5 C 3.621466636657715 869.5 2.5 868.3785400390625 2.5 867 L 2.5 5 C 2.5 3.621466636657715 3.621466636657715 2.5 5 2.5 L 1060 2.5 C 1061.378540039063 2.5 1062.5 3.621466636657715 1062.5 5 L 1062.5 867 C 1062.5 868.3785400390625 1061.378540039063 869.5 1060 869.5 Z" stroke="none"/>
        <path d="M 5 5 L 5 866.9999389648438 C 5 866.9999389648438 5 867 5 867 L 1059.999877929688 867 C 1060 867 1060 866.9999389648438 1060 867 L 1060 5 L 5 5 M 5 0 L 1060 0 C 1062.761474609375 0 1065 2.238525390625 1065 5 L 1065 867 C 1065 869.7613525390625 1062.761474609375 872 1060 872 L 5 872 C 2.238525390625 872 0 869.7613525390625 0 867 L 0 5 C 0 2.238525390625 2.238525390625 0 5 0 Z" stroke="none" fill="#fff"/>
      </g>
    </g>
    <g transform="matrix(1, 0, 0, 1, 212.82, 380.5)" filter="url(#Rectangle_16)">
      <rect id="Rectangle_16-2" data-name="Rectangle 16" width="39" height="95" transform="translate(25.48 569.01) rotate(-115)" fill="#fff"/>
    </g>
    <g id="Rectangle_21" data-name="Rectangle 21" transform="translate(246 393)" fill="none" stroke="#fff" stroke-width="5">
      <rect width="1066" height="359" rx="5" stroke="none"/>
      <rect x="2.5" y="2.5" width="1061" height="354" rx="2.5" fill="none"/>
    </g>
    <path id="Polygon_2" data-name="Polygon 2" d="M377.5,0,755,181H0Z" transform="translate(273 567)" fill="#fff"/>
    <g transform="matrix(1, 0, 0, 1, 212.82, 380.5)" filter="url(#Rectangle_17)">
      <rect id="Rectangle_17-2" data-name="Rectangle 17" width="39" height="95" transform="translate(25.48 644.01) rotate(-115)" fill="#fff"/>
    </g>
    <g transform="matrix(1, 0, 0, 1, 212.82, 380.5)" filter="url(#Rectangle_18)">
      <rect id="Rectangle_18-2" data-name="Rectangle 18" width="39" height="95" transform="translate(25.48 719.01) rotate(-115)" fill="#fff"/>
    </g>
    <g transform="matrix(1, 0, 0, 1, 212.82, 380.5)" filter="url(#Rectangle_19)">
      <rect id="Rectangle_19-2" data-name="Rectangle 19" width="39" height="95" transform="translate(25.48 794.01) rotate(-115)" fill="#fff"/>
    </g>
    <g transform="matrix(1, 0, 0, 1, 212.82, 380.5)" filter="url(#globe-solid)">
      <path id="globe-solid-2" data-name="globe-solid" d="M19.84,16.819C18.985,11.638,16.968,8,14.622,8S10.259,11.638,9.4,16.819ZM8.962,22.389A35.8,35.8,0,0,0,9.156,26.1H20.081a35.8,35.8,0,0,0,.195-3.713,35.8,35.8,0,0,0-.195-3.713H9.156A35.8,35.8,0,0,0,8.962,22.389Zm19.144-5.57A14.574,14.574,0,0,0,18.79,8.6a19.386,19.386,0,0,1,2.948,8.216ZM10.448,8.6a14.564,14.564,0,0,0-9.31,8.216H7.505A19.307,19.307,0,0,1,10.448,8.6ZM28.737,18.676H21.974a36.848,36.848,0,0,1,.195,3.713,36.848,36.848,0,0,1-.195,3.713h6.757a14.053,14.053,0,0,0,.507-3.713A14.3,14.3,0,0,0,28.737,18.676ZM7.075,22.389a36.847,36.847,0,0,1,.195-3.713H.507a13.851,13.851,0,0,0,0,7.427H7.264C7.146,24.884,7.075,23.637,7.075,22.389ZM9.4,27.96c.855,5.181,2.871,8.819,5.218,8.819s4.363-3.638,5.218-8.819ZM18.8,36.176a14.588,14.588,0,0,0,9.316-8.216H21.744A19.386,19.386,0,0,1,18.8,36.176ZM1.138,27.96a14.574,14.574,0,0,0,9.316,8.216A19.386,19.386,0,0,1,7.505,27.96H1.138Z" transform="translate(69.18 722.72)" fill="#3b2621"/>
    </g>
    <g transform="matrix(1, 0, 0, 1, 212.82, 380.5)" filter="url(#map-marked-alt-solid)">
      <path id="map-marked-alt-solid-2" data-name="map-marked-alt-solid" d="M15.621,0A6.961,6.961,0,0,0,8.787,7.082c0,3.162,4.467,8.926,6.178,11.018a.836.836,0,0,0,1.313,0c1.711-2.092,6.178-7.856,6.178-11.018A6.961,6.961,0,0,0,15.621,0Zm0,9.443a2.32,2.32,0,0,1-2.278-2.361,2.28,2.28,0,1,1,4.556,0A2.32,2.32,0,0,1,15.621,9.443Zm-14.53,2.7A1.8,1.8,0,0,0,0,13.808v14.07a.872.872,0,0,0,1.19.835l7.488-3.532V12.08A17.325,17.325,0,0,1,7.526,9.471Zm14.53,8.078a2.556,2.556,0,0,1-1.98-.953c-1.066-1.3-2.2-2.789-3.227-4.312v10.23l10.414,3.6V14.952c-1.026,1.523-2.16,3.008-3.227,4.312A2.557,2.557,0,0,1,15.621,20.217ZM30.052,9.059l-7.488,3.532V28.779l7.587-3.145a1.8,1.8,0,0,0,1.091-1.67V9.894a.872.872,0,0,0-1.19-.835Z" transform="translate(68.18 502.72)" fill="#3b2621"/>
    </g>
    <g transform="matrix(1, 0, 0, 1, 212.82, 380.5)" filter="url(#phone-solid)">
      <path id="phone-solid-2" data-name="phone-solid" d="M1.02,1.217,6.784.02A1.381,1.381,0,0,1,8.308.713L10.968,6.3a1.118,1.118,0,0,1-.382,1.4L7.228,10.17a19.632,19.632,0,0,0,9.821,8.838L19.8,15.985a1.427,1.427,0,0,1,1.552-.344l6.207,2.394a1.185,1.185,0,0,1,.776,1.377L27,24.6a1.308,1.308,0,0,1-1.3.928C11.512,25.527-.01,15.177-.01,2.384A1.23,1.23,0,0,1,1.02,1.217Z" transform="translate(69.19 582.73)" fill="#3b2621"/>
    </g>
    <g transform="matrix(1, 0, 0, 1, 212.82, 380.5)" filter="url(#envelope-solid)">
      <path id="envelope-solid-2" data-name="envelope-solid" d="M30.65,72.019a.366.366,0,0,1,.592.3V85.248a2.984,2.984,0,0,1-2.929,3.035H2.929A2.984,2.984,0,0,1,0,85.248V72.322a.364.364,0,0,1,.592-.3c1.367,1.1,3.179,2.5,9.4,7.184,1.288.974,3.46,3.023,5.626,3.01,2.178.019,4.393-2.074,5.632-3.01C27.477,74.523,29.283,73.119,30.65,72.019ZM15.621,80.189c1.416.025,3.454-1.847,4.479-2.618,8.1-6.09,8.714-6.621,10.581-8.139a1.534,1.534,0,0,0,.561-1.2v-1.2A2.984,2.984,0,0,0,28.313,64H2.929A2.984,2.984,0,0,0,0,67.036v1.2a1.543,1.543,0,0,0,.561,1.2c1.867,1.511,2.484,2.049,10.581,8.139C12.167,78.343,14.205,80.215,15.621,80.189Z" transform="translate(68.18 593.22)" fill="#3b2621"/>
    </g>
    <line id="Line_1" data-name="Line 1" y2="419" transform="translate(767.5 841.5)" fill="none" stroke="#694f4e" stroke-width="5"/>
    <g id="Education" transform="translate(-6 14)">
      <ellipse id="Ellipse_14" data-name="Ellipse 14" cx="31.104" cy="30.258" rx="31.104" ry="30.258" transform="translate(742 767)" fill="#3b2621"/>
      <path id="graduation-cap-solid" d="M47.64,73.661,26.289,64.377a4.415,4.415,0,0,0-3.581,0L1.356,73.661c-1.8.783-1.8,4.156,0,4.939l3.722,1.619A10.813,10.813,0,0,0,3.71,85.3a3.8,3.8,0,0,0-1.256,2.965,3.922,3.922,0,0,0,1.061,2.779L1.561,103.489c-.17,1.082.412,2.109,1.195,2.109H7.05c.784,0,1.366-1.027,1.2-2.109L6.292,91.043a3.922,3.922,0,0,0,1.061-2.779,3.835,3.835,0,0,0-1.2-2.911,5.834,5.834,0,0,1,1.584-3.978l14.969,6.51a4.423,4.423,0,0,0,3.581,0L47.64,78.6C49.442,77.817,49.442,74.446,47.64,73.661ZM27.008,91.2a6.191,6.191,0,0,1-5.02,0l-11.1-4.826L9.8,98.665c0,3.83,6.58,6.933,14.7,6.933s14.7-3.1,14.7-6.933L38.109,86.372Z" transform="translate(748.695 712.785)" fill="#daccba"/>
    </g>
    <g id="_2015_-_2020:_College" data-name="2015 - 2020: College" transform="translate(0 19)">
      <ellipse id="Ellipse_-_College" data-name="Ellipse - College" cx="18.5" cy="18" rx="18.5" ry="18" transform="translate(749 840)" fill="#3b2621"/>
    </g>
    <g id="_2011_-_2015:_Secondary" data-name="2011 - 2015: Secondary" transform="translate(0 19)">
      <ellipse id="Ellipse_13" data-name="Ellipse 13" cx="18.5" cy="18" rx="18.5" ry="18" transform="translate(749 943)" fill="#3b2621"/>
    </g>
    <g id="_2005_-_2011:_Primary" data-name="2005 - 2011: Primary" transform="translate(0 23)">
      <ellipse id="Ellipse_15" data-name="Ellipse 15" cx="18.5" cy="18" rx="18.5" ry="18" transform="translate(749 1029)" fill="#3b2621"/>
    </g>
  </g>
</svg>
